<?xml version="1.0" encoding="UTF-8" standalone="no"?>
<!DOCTYPE svg PUBLIC "-//W3C//DTD SVG 1.1//EN"
 "http://www.w3.org/Graphics/SVG/1.1/DTD/svg11.dtd">
<!-- Generated by graphviz version 2.47.0 (20210316.0004)
 -->
<!-- Title: dependencies Pages: 1 -->
<svg width="504pt" height="287pt"
 viewBox="0.00 0.00 504.00 287.00" xmlns="http://www.w3.org/2000/svg" xmlns:xlink="http://www.w3.org/1999/xlink">
<g id="graph0" class="graph" transform="scale(1 1) rotate(0) translate(4 283)">
<title>dependencies</title>
<polygon fill="white" stroke="transparent" points="-4,4 -4,-283 500,-283 500,4 -4,4"/>
<text text-anchor="start" x="227.01" y="-42.4" font-family="sans-serif" font-weight="bold" font-size="14.00">Legend</text>
<polygon fill="#ffffb3" stroke="transparent" points="14,-10 14,-30 34,-30 34,-10 14,-10"/>
<text text-anchor="start" x="37.63" y="-15.4" font-family="sans-serif" font-size="14.00"> &#160;Declarations</text>
<polygon fill="#8dd3c7" stroke="transparent" points="127,-10 127,-30 147,-30 147,-10 127,-10"/>
<text text-anchor="start" x="150.73" y="-15.4" font-family="sans-serif" font-size="14.00"> &#160;Module</text>
<polygon fill="#80b1d3" stroke="transparent" points="213,-10 213,-30 233,-30 233,-10 213,-10"/>
<text text-anchor="start" x="236.78" y="-15.4" font-family="sans-serif" font-size="14.00"> &#160;Bootstrap</text>
<polygon fill="#fdb462" stroke="transparent" points="310,-10 310,-30 330,-30 330,-10 310,-10"/>
<text text-anchor="start" x="333.67" y="-15.4" font-family="sans-serif" font-size="14.00"> &#160;Providers</text>
<polygon fill="#fb8072" stroke="transparent" points="406,-10 406,-30 426,-30 426,-10 406,-10"/>
<text text-anchor="start" x="429.73" y="-15.4" font-family="sans-serif" font-size="14.00"> &#160;Exports</text>
<g id="clust1" class="cluster">
<title>cluster_AppModule</title>
<polygon fill="none" stroke="black" stroke-dasharray="1,5" points="79.5,-146 79.5,-271 391.5,-271 391.5,-146 79.5,-146"/>
</g>
<g id="clust3" class="cluster">
<title>cluster_AppModule_imports</title>
<polygon fill="none" stroke="black" points="225.5,-154 225.5,-206 383.5,-206 383.5,-154 225.5,-154"/>
</g>
<g id="clust6" class="cluster">
<title>cluster_AppModule_providers</title>
<polygon fill="none" stroke="black" points="87.5,-154 87.5,-206 217.5,-206 217.5,-154 87.5,-154"/>
</g>
<g id="clust7" class="cluster">
<title>cluster_InfoCommandModule</title>
<polygon fill="none" stroke="black" stroke-dasharray="1,5" points="192.5,-70 192.5,-138 416.5,-138 416.5,-70 192.5,-70"/>
</g>
<g id="clust12" class="cluster">
<title>cluster_InfoCommandModule_providers</title>
<polygon fill="none" stroke="black" points="200.5,-78 200.5,-130 408.5,-130 408.5,-78 200.5,-78"/>
</g>
<!-- InfoCommandModule -->
<g id="node1" class="node">
<title>InfoCommandModule</title>
<polygon fill="#8dd3c7" stroke="black" points="375.2,-198 372.2,-202 351.2,-202 348.2,-198 233.8,-198 233.8,-162 375.2,-162 375.2,-198"/>
<text text-anchor="middle" x="304.5" y="-175.8" font-family="Times,serif" font-size="14.00">InfoCommandModule</text>
</g>
<!-- AppModule -->
<g id="node2" class="node">
<title>AppModule</title>
<polygon fill="#8dd3c7" stroke="black" points="270.16,-263 267.16,-267 246.16,-267 243.16,-263 186.84,-263 186.84,-227 270.16,-227 270.16,-263"/>
<text text-anchor="middle" x="228.5" y="-240.8" font-family="Times,serif" font-size="14.00">AppModule</text>
</g>
<!-- InfoCommandModule&#45;&gt;AppModule -->
<g id="edge1" class="edge">
<title>InfoCommandModule&#45;&gt;AppModule</title>
<path fill="none" stroke="black" d="M252.11,-198.11C252.11,-198.11 252.11,-216.99 252.11,-216.99"/>
<polygon fill="black" stroke="black" points="248.61,-216.99 252.11,-226.99 255.61,-216.99 248.61,-216.99"/>
</g>
<!-- AppService -->
<g id="node3" class="node">
<title>AppService</title>
<ellipse fill="#fdb462" stroke="black" cx="152.5" cy="-180" rx="56.74" ry="18"/>
<text text-anchor="middle" x="152.5" y="-175.8" font-family="Times,serif" font-size="14.00">AppService</text>
</g>
<!-- AppService&#45;&gt;AppModule -->
<g id="edge2" class="edge">
<title>AppService&#45;&gt;AppModule</title>
<path fill="none" stroke="black" d="M197.9,-191.03C197.9,-191.03 197.9,-216.78 197.9,-216.78"/>
<polygon fill="black" stroke="black" points="194.4,-216.78 197.9,-226.78 201.4,-216.78 194.4,-216.78"/>
</g>
<!-- InfoCommandService -->
<g id="node4" class="node">
<title>InfoCommandService</title>
<ellipse fill="#fdb462" stroke="black" cx="304.5" cy="-104" rx="96.13" ry="18"/>
<text text-anchor="middle" x="304.5" y="-99.8" font-family="Times,serif" font-size="14.00">InfoCommandService</text>
</g>
<!-- InfoCommandService&#45;&gt;InfoCommandModule -->
<g id="edge3" class="edge">
<title>InfoCommandService&#45;&gt;InfoCommandModule</title>
<path fill="none" stroke="black" d="M304.5,-122.01C304.5,-122.01 304.5,-151.85 304.5,-151.85"/>
<polygon fill="black" stroke="black" points="301,-151.85 304.5,-161.85 308,-151.85 301,-151.85"/>
</g>
</g>
</svg>
